<svg fill="none" height="23" viewBox="0 0 61 23" width="61" xmlns="http://www.w3.org/2000/svg" class="w-[46px] h-[17px] lg:w-[61px] lg:h-[23px]"><path d="M11.8414 22.4264V12.7194H21.9816L23.0696 14.157L24.1936 12.7194H61V21.7571C61 21.7571 60.0375 22.4167 58.9242 22.4265H38.5437L37.3171 20.8963V22.4265H33.2976V19.8144C33.2976 19.8144 32.7485 20.179 31.5615 20.179H30.1934V22.4265H24.1075L23.0211 20.9581L21.918 22.4265L11.8414 22.4264ZM0 5.4034L2.28665 0H6.24122L7.53886 3.02676V0H12.4547L13.2273 2.18765L13.9762 0H36.0433V1.09981C36.0433 1.09981 37.2034 0 39.1098 0L46.2698 0.0254128L47.5451 3.01251V0H51.6589L52.7912 1.71584V0H56.9428V9.70698H52.7912L51.7061 7.9855V9.70692H45.662L45.0541 8.17677H43.4293L42.8313 9.70692H38.7324C37.092 9.70692 36.0433 8.62961 36.0433 8.62961V9.70692H29.8631L28.6365 8.17684V9.70698H5.65538L5.04796 8.17684H3.42817L2.82522 9.70692H0V5.4034Z" fill="white"></path><path d="M3.07713 1.79517L0 8.97119H2.00338L2.57116 7.5342H5.8719L6.43668 8.97119H8.48424L5.40991 1.79517H3.07713ZM4.21561 3.46519L5.22169 5.97629H3.2066L4.21561 3.46519ZM8.69601 8.96997V1.79395L11.5429 1.80453L13.1987 6.43122L14.8149 1.79395H17.6391V8.96997H15.8505V3.68238L13.9545 8.96997H12.3859L10.4846 3.68238V8.96997H8.69601ZM18.8629 8.96997V1.79395H24.6995V3.3991H20.6704V4.62656H24.6053V6.13736H20.6704V7.41206H24.6995V8.96997H18.8629ZM25.735 1.79517V8.97119H27.5236V6.42179H28.2767L30.4213 8.97119H32.6071L30.2536 6.32737C31.2195 6.24561 32.2158 5.41415 32.2158 4.12323C32.2158 2.61317 31.0341 1.79517 29.7153 1.79517H25.735ZM27.5236 3.40033H29.5681C30.0587 3.40033 30.4154 3.78512 30.4154 4.15566C30.4154 4.63238 29.9531 4.91106 29.5947 4.91106H27.5236V3.40033ZM34.7723 8.96997H32.946V1.79395H34.7723V8.96997ZM39.1026 8.96997H38.7084C36.8011 8.96997 35.643 7.46273 35.643 5.41146C35.643 3.30945 36.7881 1.79395 39.1967 1.79395H41.1736V3.49353H39.1245C38.1467 3.49353 37.4552 4.2589 37.4552 5.42914C37.4552 6.81889 38.2459 7.40257 39.385 7.40257H39.8557L39.1026 8.96997ZM42.9946 1.79517L39.9175 8.97119H41.9209L42.4886 7.5342H45.7893L46.3542 8.97119H48.4017L45.3275 1.79517H42.9946ZM44.1331 3.46519L45.1392 5.97629H43.124L44.1331 3.46519ZM48.6105 8.96997V1.79395H50.8846L53.7881 6.30258V1.79395H55.5768V8.96997H53.3763L50.3991 4.34335V8.96997H48.6105ZM13.0264 21.528V14.352H18.8629V15.9571H14.8338V17.1847H18.7687V18.6954H14.8338V19.9701H18.8629V21.528H13.0264ZM41.6255 21.528V14.352H47.462V15.9571H43.4329V17.1847H47.3491V18.6954H43.4329V19.9701H47.462V21.528H41.6255ZM19.0894 21.528L21.9312 17.9843L19.0218 14.352H21.2752L23.008 16.5974L24.7466 14.352H26.9118L24.0406 17.94L26.8876 21.528H24.6345L22.9521 19.318L21.3106 21.528H19.0894ZM27.1 14.3532V21.5292H28.9357V19.2632H30.8185C32.4115 19.2632 33.6191 18.4154 33.6191 16.7669C33.6191 15.4012 32.672 14.3532 31.0508 14.3532H27.1ZM28.9357 15.9761H30.9184C31.4331 15.9761 31.801 16.2925 31.801 16.8023C31.801 17.2812 31.435 17.6285 30.9126 17.6285H28.9357V15.9761ZM34.3957 14.352V21.528H36.1843V18.9786H36.9374L39.082 21.528H41.2678L38.9143 18.8843C39.8802 18.8025 40.8765 17.971 40.8765 16.68C40.8765 15.17 39.6948 14.352 38.376 14.352H34.3957ZM36.1843 15.9571H38.2289C38.7194 15.9571 39.0762 16.3419 39.0762 16.7125C39.0762 17.1893 38.6139 17.4679 38.2554 17.4679H36.1843V15.9571ZM48.2905 21.528V19.9701H51.8701C52.3997 19.9701 52.6291 19.683 52.6291 19.3681C52.6291 19.0664 52.4005 18.7615 51.8701 18.7615H50.2525C48.8465 18.7615 48.0634 17.9023 48.0634 16.6122C48.0634 15.4616 48.7804 14.352 50.8699 14.352H54.353L53.5999 15.9666H50.5874C50.0116 15.9666 49.8344 16.2697 49.8344 16.5591C49.8344 16.8565 50.0534 17.1847 50.4933 17.1847H52.1878C53.7552 17.1847 54.4353 18.0764 54.4353 19.2442C54.4353 20.4997 53.6774 21.528 52.1025 21.528H48.2905ZM54.8551 21.528V19.9701H58.4347C58.9644 19.9701 59.1937 19.683 59.1937 19.3681C59.1937 19.0664 58.9651 18.7615 58.4347 18.7615H56.8172C55.4111 18.7615 54.6281 17.9023 54.6281 16.6122C54.6281 15.4616 55.3451 14.352 57.4345 14.352H60.9176L60.1645 15.9666H57.1521C56.5763 15.9666 56.399 16.2697 56.399 16.5591C56.399 16.8565 56.618 17.1847 57.058 17.1847H58.7524C60.3198 17.1847 61 18.0764 61 19.2442C61 20.4997 60.2421 21.528 58.6672 21.528H54.8551Z" fill="#016FD0"></path></svg>