<svg fill="none" height="27" viewBox="0 0 44 27" width="44" xmlns="http://www.w3.org/2000/svg" class="w-[34px] h-[21px] lg:w-11 lg:h-[27px]"><path clip-rule="evenodd" d="M22 22.9284C24.656 20.5298 26.3325 17.0485 26.3325 13.1789C26.3325 9.3109 24.656 5.82875 22 3.40417C19.6785 1.28986 16.5838 0 13.1797 0C5.90592 0 0 5.90673 0 13.1789C0 20.4526 5.90592 26.3325 13.1797 26.3325C16.5838 26.3325 19.6785 25.0435 22 22.9284Z" fill="#009DDD" fill-rule="evenodd"></path><path clip-rule="evenodd" d="M22 22.9285C24.6561 20.5299 26.3326 17.0486 26.3326 13.179C26.3326 9.31103 24.6561 5.82888 22 3.4043" fill="#009DDD" fill-rule="evenodd"></path><path clip-rule="evenodd" d="M30.846 0C27.4418 0 24.3463 1.28986 21.9997 3.40417C21.5351 3.84279 21.0964 4.3074 20.6846 4.79719H23.3407C23.7013 5.23581 24.0368 5.7256 24.3463 6.19021H19.6782C19.3948 6.65401 19.1365 7.11862 18.905 7.58242H25.0944C25.3007 8.04703 25.507 8.51082 25.6621 8.97544H18.3632C18.2081 9.44005 18.0797 9.90384 17.9766 10.3936H26.0488C26.2299 11.2709 26.3322 12.2253 26.3322 13.1797C26.3322 14.6239 26.0999 16.0421 25.6621 17.3571H18.3632C18.5175 17.8217 18.6987 18.2863 18.905 18.7501H25.0944C24.8629 19.2147 24.6306 19.7045 24.3463 20.1432H19.6782C19.9877 20.6329 20.3232 21.0976 20.6846 21.5354H23.3407C22.9281 22.026 22.4895 22.4898 21.9997 22.9284C24.3463 25.0435 27.4418 26.3325 30.846 26.3325C38.1189 26.3325 43.9996 20.4526 43.9996 13.1797C43.9996 5.90592 38.1189 0 30.846 0Z" fill="#ED1B2D" fill-rule="evenodd"></path><path clip-rule="evenodd" d="M11.1151 16.8421H9.4646L10.445 11.7095L8.20072 16.8421H6.80852L6.52423 11.7346L5.44149 16.8421H3.94531L5.20918 10.1621H7.81409L7.84008 14.2884L9.64573 10.1621H12.405" fill="#003473" fill-rule="evenodd"></path><path clip-rule="evenodd" d="M29.4289 16.7641C28.9643 16.8933 28.6296 16.9445 28.2422 16.9445C27.4169 16.9445 26.9531 16.5326 26.9531 15.7586C26.9531 15.6034 26.9783 15.4231 27.0043 15.2688L27.1075 14.727L27.1846 14.3144L27.9327 10.1621H29.5572L29.3249 11.4H30.151L29.9439 12.715H29.0934L28.6548 14.9845C28.6548 15.0876 28.6296 15.1656 28.6296 15.2168C28.6296 15.5003 28.8099 15.6034 29.1966 15.6034C29.3769 15.6034 29.532 15.6034 29.6344 15.5522" fill="#003473" fill-rule="evenodd"></path><path clip-rule="evenodd" d="M22.9281 13.1273C22.9281 13.7983 23.3148 14.288 24.166 14.6235C24.8629 14.907 24.9661 14.9841 24.9661 15.2424C24.9661 15.5779 24.6558 15.7322 24.0117 15.7322C23.4959 15.7322 23.0573 15.6551 22.5155 15.4999L22.2832 16.7638H22.3604L22.6698 16.8158C22.7738 16.8418 22.9021 16.867 23.1093 16.867C23.4959 16.8929 23.8046 16.9189 24.0117 16.9189C25.7653 16.9189 26.5646 16.3512 26.5646 15.1133C26.5646 14.3652 26.23 13.9274 25.4039 13.5919C24.7078 13.3336 24.6306 13.2565 24.6306 12.9982C24.6306 12.7147 24.9141 12.5596 25.4299 12.5596C25.7653 12.5596 26.2032 12.5856 26.6426 12.6375L26.8741 11.3997C26.4355 11.3217 25.7905 11.2705 25.4039 11.2705C23.5471 11.2705 22.9021 12.1218 22.9281 13.1273Z" fill="#003473" fill-rule="evenodd"></path><path clip-rule="evenodd" d="M15.3194 14.4172C15.1391 14.3912 15.0619 14.3912 14.9328 14.3912C14.0044 14.3912 13.5398 14.6747 13.5398 15.2165C13.5398 15.5519 13.7721 15.7582 14.1327 15.7582C14.8036 15.7582 15.2934 15.2165 15.3194 14.4172ZM16.4282 16.8418H15.0619L15.0871 16.274C14.6745 16.7126 14.1075 16.9189 13.3595 16.9189C12.4822 16.9189 11.8633 16.326 11.8633 15.4488C11.8633 14.1337 12.9208 13.3596 14.7525 13.3596C14.9328 13.3596 15.1651 13.3596 15.4226 13.3856C15.4746 13.2045 15.4746 13.1273 15.4746 13.0502C15.4746 12.6887 15.1903 12.5344 14.417 12.5344C13.9524 12.5344 13.4366 12.6115 13.076 12.6887L12.8437 12.7667L12.6885 12.7919L12.9208 11.58C13.7461 11.3477 14.2879 11.2705 14.8816 11.2705C16.2998 11.2705 17.0471 11.8375 17.0471 12.8698C17.0471 13.1533 17.0219 13.3336 16.8928 13.9526L16.5573 15.8614L16.5061 16.2228L16.4542 16.5063L16.4282 16.6866" fill="#003473" fill-rule="evenodd"></path><path clip-rule="evenodd" d="M21.0197 13.4888V13.2045C21.0197 12.7667 20.7362 12.5084 20.2464 12.5084C19.7306 12.5084 19.344 12.8438 19.1888 13.4888H21.0197ZM21.7938 16.7126C21.252 16.867 20.7102 16.9441 20.1173 16.9441C18.2864 16.9441 17.332 16.0937 17.332 14.4944C17.332 12.6375 18.5439 11.2705 20.1944 11.2705C21.5615 11.2705 22.4127 12.0438 22.4127 13.2305C22.4127 13.6431 22.3607 14.0297 22.2064 14.5715H18.9565C18.9314 14.6747 18.9314 14.7007 18.9314 14.7518C18.9314 15.3716 19.4212 15.7062 20.3747 15.7062C20.9685 15.7062 21.4843 15.6031 22.0772 15.3456" fill="#003473" fill-rule="evenodd"></path><path clip-rule="evenodd" d="M37.6302 13.7199C37.6302 13.1529 37.3979 12.6112 36.7278 12.6112C35.9025 12.6112 35.3607 13.6176 35.3607 14.468C35.3607 15.2161 35.7214 15.7059 36.3151 15.7059C36.6758 15.7059 37.4239 15.2161 37.579 14.3648C37.6042 14.1837 37.6302 13.9522 37.6302 13.7199ZM39.2807 14.3648C39.0484 16.1705 37.7845 16.9697 36.108 16.9697C34.2512 16.9697 33.5039 15.861 33.5039 14.468C33.5039 12.5592 34.767 11.2441 36.7278 11.2441C38.4294 11.2441 39.3327 12.3277 39.3327 13.6947C39.3327 14.0294 39.3327 14.0554 39.2807 14.3648Z" fill="#003473" fill-rule="evenodd"></path><path clip-rule="evenodd" d="M39.8484 15.991H39.9507V15.913H39.8484V15.991ZM39.8484 16.1973H39.7452V15.8358H39.8996C39.9507 15.8358 39.9775 15.8358 40.0027 15.8618C40.0287 15.8878 40.0547 15.913 40.0547 15.939C40.0547 15.991 40.0287 16.0421 39.9775 16.0421L40.0547 16.1973H39.9507L39.8996 16.0681H39.8484V16.1973ZM39.8996 16.3516C40.0807 16.3516 40.209 16.1973 40.209 16.0161C40.209 15.8358 40.0807 15.7067 39.8996 15.7067C39.7192 15.7067 39.5641 15.8358 39.5641 16.0161C39.5641 16.1973 39.7192 16.3516 39.8996 16.3516ZM39.4609 16.0161C39.4609 15.7846 39.6681 15.6035 39.8996 15.6035C40.1319 15.6035 40.3122 15.7846 40.3122 16.0161C40.3122 16.2484 40.1319 16.4548 39.8996 16.4548C39.6681 16.4548 39.4609 16.2484 39.4609 16.0161Z" fill="white" fill-rule="evenodd"></path><path clip-rule="evenodd" d="M11.5294 16.4544H9.87806L10.8585 11.3218L8.61419 16.4544H7.11882L6.86052 11.3478L5.88094 16.4544H4.38477L5.64864 9.77441H8.22755L8.3567 13.9015L10.1623 9.77441H12.8184" fill="white" fill-rule="evenodd"></path><path clip-rule="evenodd" d="M29.841 16.3772C29.3772 16.5056 29.0409 16.5576 28.6543 16.5576C27.829 16.5576 27.3652 16.1449 27.3652 15.3709C27.3652 15.2165 27.3904 15.0622 27.4164 14.8819L27.5196 14.3401L27.5967 13.9275L28.3448 9.77441H29.9693L29.7378 11.0123H30.5883L30.3568 12.3281H29.5055L29.0929 14.5976C29.0669 14.7007 29.0409 14.7779 29.0409 14.8299C29.0409 15.1134 29.2212 15.2425 29.6087 15.2425C29.7898 15.2425 29.9433 15.2165 30.0465 15.1905" fill="white" fill-rule="evenodd"></path><path clip-rule="evenodd" d="M34.0444 12.5863L34.0193 12.406L34.3287 11.5547C34.2508 11.5547 34.2256 11.5547 34.1996 11.5295C34.1216 11.5295 34.0704 11.5035 34.0704 11.5035H33.9161C33.3743 11.5035 32.9869 11.7359 32.4719 12.38L32.6522 11.4004H30.9497L29.9434 16.8425H31.5687C31.801 15.5786 31.9041 14.8817 32.0325 14.2888C32.2396 13.3084 32.9617 12.8706 33.5035 12.9729C33.5547 12.9729 33.6066 12.9729 33.6838 12.9989L33.787 13.0509" fill="#003473" fill-rule="evenodd"></path><path clip-rule="evenodd" d="M34.6128 11.0651C34.4837 11.0131 34.4577 11.0131 34.4317 11.0131C34.3545 10.9879 34.3034 10.9879 34.3034 10.9619H34.1222C33.5813 10.9619 33.1946 11.1942 32.704 11.8383L32.8592 11.0131H31.363L30.3574 16.4552H32.0079C32.6009 13.1282 32.8332 12.5353 33.6324 12.5353C33.6844 12.5353 33.7616 12.5612 33.8388 12.5612L34.0199 12.6124" fill="white" fill-rule="evenodd"></path><path clip-rule="evenodd" d="M23.3416 12.7408C23.3416 13.4117 23.7282 13.9015 24.6055 14.2362C25.2764 14.5205 25.3795 14.5976 25.3795 14.8559C25.3795 15.1906 25.0701 15.3457 24.4243 15.3457C23.9345 15.3457 23.4707 15.2686 22.9298 15.1134L22.7227 16.3773H22.7998L23.0841 16.4545C23.1873 16.4545 23.3416 16.4804 23.5219 16.4804C23.9094 16.5324 24.2188 16.5324 24.4503 16.5324C26.1788 16.5324 27.0041 15.9647 27.0041 14.7268C27.0041 13.9787 26.6686 13.5401 25.8174 13.2046C25.1212 12.9471 25.0441 12.87 25.0441 12.6117C25.0441 12.3282 25.3276 12.1731 25.8693 12.1731C26.1788 12.1731 26.6434 12.199 27.0552 12.251L27.2875 11.0123C26.8489 10.9352 26.2048 10.9092 25.8433 10.9092C23.9865 10.9092 23.3416 11.7352 23.3416 12.7408Z" fill="white" fill-rule="evenodd"></path><path clip-rule="evenodd" d="M15.6557 14.0299C15.4754 14.0047 15.3974 14.0047 15.2943 14.0047C14.3659 14.0047 13.9013 14.2882 13.9013 14.8299C13.9013 15.1654 14.1084 15.3969 14.469 15.3969C15.1399 15.3969 15.6297 14.8299 15.6557 14.0299ZM16.8424 16.4545H15.5006L15.5266 15.8875C15.114 16.3261 14.547 16.5316 13.7981 16.5316C12.9217 16.5316 12.3027 15.9387 12.3027 15.0622C12.3027 13.7464 13.3603 12.9723 15.1919 12.9723C15.3714 12.9723 15.6037 12.9723 15.862 12.9983C15.9132 12.818 15.9132 12.7408 15.9132 12.6637C15.9132 12.3022 15.6297 12.1731 14.8565 12.1731C14.3919 12.1731 13.8761 12.225 13.5154 12.3022L13.2831 12.3802L13.128 12.4054L13.3603 11.1935C14.1855 10.9872 14.7013 10.9092 15.3203 10.9092C16.7385 10.9092 17.4606 11.451 17.4606 12.4825C17.4606 12.7668 17.4354 12.9723 17.3322 13.5661L16.9968 15.5001L16.9456 15.8355L16.8936 16.1198L16.8676 16.3001" fill="white" fill-rule="evenodd"></path><path clip-rule="evenodd" d="M21.3548 13.1021V12.8186C21.3548 12.38 21.0714 12.1225 20.5816 12.1225C20.065 12.1225 19.7043 12.4831 19.55 13.1021H21.3548ZM22.2321 16.3267C21.6643 16.481 21.1225 16.5582 20.5556 16.5582C18.7247 16.5582 17.7695 15.707 17.7695 14.1084C17.7695 12.2516 18.9822 10.8838 20.6327 10.8838C21.9738 10.8838 22.825 11.6579 22.825 12.8446C22.825 13.2572 22.7738 13.6438 22.6447 14.1856H19.3689V14.3659C19.3689 14.9849 19.8335 15.3203 20.7879 15.3203C21.3808 15.3203 21.9226 15.2172 22.4896 14.9849" fill="white" fill-rule="evenodd"></path><path clip-rule="evenodd" d="M38.0165 13.283C38.0165 12.7152 37.7842 12.1994 37.1141 12.1994C36.2888 12.1994 35.773 13.179 35.773 14.0563C35.773 14.7783 36.1337 15.2681 36.7015 15.2681C37.0621 15.2681 37.8362 14.7783 37.9653 13.9531C38.0165 13.7468 38.0165 13.5145 38.0165 13.283ZM39.7198 13.9791C39.4607 15.7847 38.1968 16.584 36.5211 16.584C34.6895 16.584 33.9414 15.4753 33.9414 14.0822C33.9414 12.1734 35.2053 10.8584 37.1653 10.8584C38.8677 10.8584 39.771 11.9411 39.771 13.3082C39.771 13.6436 39.771 13.6696 39.7198 13.9791Z" fill="white" fill-rule="evenodd"></path></svg>