<svg width="56" height="45" viewBox="0 0 56 45" fill="none" xmlns="http://www.w3.org/2000/svg">
<path d="M38.7507 6.09759H2.91868L7.55641 1.46514C7.89214 1.12832 7.89214 0.586217 7.55641 0.251236C7.21885 -0.0837452 6.67369 -0.0837452 6.3398 0.251236L0.252142 6.32947C0.0799151 6.4981 9.81215e-07 6.72264 0.00459371 6.94398C0.00459371 6.94719 0 6.9536 0 6.95498C0 7.20381 0.115736 7.41873 0.287504 7.57866L6.3398 13.6143C6.50697 13.7824 6.72696 13.8663 6.94742 13.8663C7.16879 13.8663 7.38924 13.7824 7.55641 13.6143C7.89214 13.2793 7.89214 12.7372 7.55641 12.4004L2.95909 7.81465H38.7507C48.8634 7.81465 53.3895 15.9513 53.3895 24.0124C53.3895 31.8375 49.1109 39.7079 39.6123 40.1634V41.886C48.918 41.4722 55.1132 34.4074 55.1132 24.0124C55.1132 13.2985 48.5387 6.09759 38.7507 6.09759Z" fill="#F0D37A"/>
<path d="M7.26172 19.2528H12.6996V34.5375H14.5514V13.9619H13.0523C12.4938 17.7537 10.495 17.8125 7.26172 17.9301V19.2528Z" fill="#F0D37A"/>
<path d="M22.2132 29.423H31.7074V34.5375H33.4122V29.423H36.4986V27.8651H33.4122V13.9619H31.7368L22.2132 27.63V29.423ZM23.8887 27.8651L31.6486 16.6661H31.7074V27.8651H23.8887Z" fill="#F0D37A"/>
<path d="M11.62 38.5289H12.8854C14.9018 38.5289 15.3339 39.6812 15.3339 41.1523C15.3339 42.6235 14.9018 43.7757 12.8854 43.7757H11.62V38.5289ZM10.334 44.8251H13.3792C15.6425 44.8251 16.6198 43.179 16.6198 41.1523C16.6198 39.1256 15.6425 37.4796 13.3792 37.4796H10.334V44.8251Z" fill="#F0D37A"/>
<path d="M20.5876 38.745H20.6185L21.7193 41.9033H19.4765L20.5876 38.745ZM17.1103 44.8251H18.4375L19.1268 42.8807H22.0588L22.7481 44.8251H24.1266L21.2975 37.4796H19.9292L17.1103 44.8251Z" fill="#F0D37A"/>
<path d="M26.1818 44.8251H27.4678V41.9445L30.2147 37.4796H28.7744L26.8608 40.7717L24.9164 37.4796H23.4247L26.1818 41.9445V44.8251Z" fill="#F0D37A"/>
<path d="M30.7027 42.3766C30.7336 44.1975 32.0915 45 33.7685 45C35.2293 45 36.6902 44.3415 36.6902 42.6955C36.6902 41.9342 36.2272 41.1112 35.2602 40.8231C34.8795 40.7099 33.2541 40.2881 33.1409 40.2573C32.6162 40.1133 32.2664 39.8252 32.2664 39.3108C32.2664 38.5701 33.0174 38.354 33.6141 38.354C34.4989 38.354 35.1367 38.7038 35.1985 39.6503H36.4844C36.4844 38.1174 35.1985 37.3047 33.6656 37.3047C32.3384 37.3047 30.9805 37.994 30.9805 39.4651C30.9805 40.2264 31.3508 40.9877 32.6059 41.3272C33.6141 41.605 34.2828 41.7387 34.7972 41.9342C35.0956 42.0474 35.4042 42.2737 35.4042 42.8395C35.4042 43.3951 34.9824 43.9506 33.8508 43.9506C32.822 43.9506 31.9887 43.5082 31.9887 42.3766H30.7027Z" fill="#F0D37A"/>
</svg>
